# This file uses centimeters as units for non-parametric coordinates.

mtllib Inside_Corner_LP.mtl
g default
v 3.000000 -0.000000 0.000000
v 3.000000 0.500000 0.000000
v 2.000000 1.000000 -3.000000
v 2.500000 1.000000 -3.000000
v 3.000000 0.500000 -3.000000
v 2.000000 -0.000000 -3.000000
v 2.500000 -0.000000 -3.000000
v 3.000000 -0.000000 -3.000000
v 1.999194 1.000000 -1.000000
v 2.500000 1.000000 -0.498372
v 2.000000 -0.000000 -0.999192
v 2.498374 -0.000000 -0.500000
v 0.000000 -0.000000 -1.000000
v -0.000000 -0.000000 -0.500000
v 0.000000 -0.000000 0.000000
v 0.000000 1.000000 -1.000000
v -0.000001 1.000000 -0.500000
v 0.000000 0.500000 0.000000
vt 0.763396 0.499989
vt 0.846668 0.499756
vt 0.496947 0.832469
vt 0.337808 0.668385
vt 0.845311 0.000000
vt 0.678724 0.000462
vt 0.428469 0.502638
vt 0.762018 0.000231
vt 0.256724 0.500711
vt 0.678334 0.499729
vt 0.414776 0.748068
vt 0.415891 0.664782
vt 0.966590 0.000092
vt 0.499177 0.665897
vt 0.595046 0.500699
vt 0.340011 0.501813
vt 0.848421 0.499758
vt 0.848795 0.000000
vt 0.345181 0.503608
vt 0.254522 0.667284
vt 0.591035 0.167550
vt 0.673467 0.083021
vt 0.966256 0.416828
vt 0.424576 0.169352
vt 0.340620 0.087166
vt 0.679625 0.416928
vt 0.166987 0.501754
vt 0.250274 0.502764
vt 0.248255 0.669339
vt 0.164968 0.668330
vt 0.077243 0.502797
vt 0.160532 0.503711
vt 0.159617 0.587000
vt 0.075414 0.669374
vt 0.249864 0.000970
vt 0.333152 0.000000
vt 0.338258 0.416434
vt 0.253745 0.333986
vt 0.966200 0.999621
vt 0.848405 0.999529
vt 0.848805 0.499770
vt 0.966323 0.583155
vt 0.005247 0.420044
vt 0.102856 0.335879
vt 0.762016 0.500009
vt 0.678964 0.583804
vt 0.763403 0.999769
vt 0.845294 0.499780
vt 0.846697 0.999538
vt 0.000000 0.003880
vt 0.083288 0.002910
vt 0.680110 1.000000
vn 0.000000 0.000000 -1.000000
vn 0.000000 0.000000 -1.000000
vn 0.000000 0.000000 -1.000000
vn 0.000000 0.000000 -1.000000
vn 0.000000 0.000000 -1.000000
vn 0.000000 0.000000 -1.000000
vn 0.000000 -1.000000 -0.000000
vn 0.000000 -1.000000 -0.000000
vn 0.000000 -1.000000 -0.000000
vn 0.000000 -1.000000 -0.000000
vn 0.000000 -1.000000 0.000000
vn 0.000000 -1.000000 0.000000
vn 1.000000 0.000000 0.000000
vn 1.000000 0.000000 0.000000
vn 1.000000 0.000000 0.000000
vn 1.000000 0.000000 0.000000
vn -1.000000 -0.000403 -0.000201
vn -1.000000 -0.000403 -0.000201
vn -1.000000 -0.000403 -0.000201
vn -1.000000 -0.000403 -0.000201
vn -0.000001 1.000000 -0.000000
vn 0.611451 0.791282 -0.000000
vn 0.481759 0.876304 -0.000000
vn -0.000001 1.000000 -0.000000
vn 0.707107 0.707107 -0.000000
vn 0.707107 0.707107 -0.000000
vn -1.000000 -0.000000 -0.000001
vn -1.000000 -0.000000 -0.000000
vn -1.000000 -0.000000 -0.000000
vn -1.000000 -0.000000 -0.000001
vn -1.000000 -0.000001 0.000001
vn -1.000000 -0.000001 0.000001
vn -0.000000 1.000000 -0.000001
vn -0.000143 0.876198 0.481951
vn -0.000181 0.790896 0.611951
vn -0.000000 1.000000 -0.000001
vn -0.000210 0.706478 0.707735
vn -0.000210 0.706478 0.707735
vn -0.000000 0.000000 1.000000
vn -0.000000 0.000000 1.000000
vn -0.000000 0.000000 1.000000
vn -0.000000 0.000000 1.000000
vn 0.000000 -1.000000 0.000000
vn 0.000000 -1.000000 0.000000
vn 0.000000 -1.000000 0.000000
vn 0.000000 -1.000000 0.000000
vn 0.000000 -1.000000 0.000000
vn 0.000000 -1.000000 0.000000
vn 0.000202 -0.000404 -1.000000
vn 0.000202 -0.000404 -1.000000
vn 0.000202 -0.000404 -1.000000
vn 0.000202 -0.000404 -1.000000
s 1
g inside_Corner
usemtl initialShadingGroup
f 3/4/1 4/20/2 7/9/3 6/16/4
f 4/3/2 5/11/5 8/12/6 7/14/3
s 2
f 6/7/7 7/19/8 12/25/9 11/24/10
f 7/6/8 8/8/11 1/1/12 12/26/9
s off
f 1/1/13 8/8/14 5/5/15 2/2/16
f 6/7/17 11/24/18 9/21/19 3/15/20
s 3
f 9/21/21 10/22/22 4/10/23 3/15/24
f 10/23/22 2/17/25 5/18/26 4/13/23
s 4
f 13/27/27 14/28/28 17/29/29 16/30/30
f 14/31/28 15/32/31 18/33/32 17/34/29
s 5
f 16/35/33 17/36/34 10/37/35 9/38/36
f 17/39/34 18/40/37 2/41/38 10/42/35
s off
f 15/47/39 1/45/40 2/48/41 18/49/42
s 6
f 11/44/43 12/43/44 14/50/45 13/51/46
f 12/46/44 1/45/47 15/47/48 14/52/45
s off
f 9/38/49 11/44/50 13/51/51 16/35/52
