# This file uses centimeters as units for non-parametric coordinates.

mtllib Outside_Corner_LP.mtl
g default
v -1.000000 -0.000000 -4.000001
v -0.500000 -0.000000 -3.500001
v 0.000000 -0.000000 -3.000001
v -1.000000 1.000000 -4.000001
v -0.500000 1.000000 -3.500001
v 0.000000 0.500000 -3.000001
v 3.000000 1.000000 -4.000001
v 3.000000 1.000000 -3.500001
v 3.000000 0.500000 -3.000001
v 3.000000 -0.000000 -4.000001
v 3.000000 -0.000000 -3.500001
v 3.000000 -0.000000 -3.000001
v -1.000000 -0.000000 -0.000001
v -0.500000 -0.000000 -0.000001
v 0.000000 -0.000000 -0.000001
v -1.000000 1.000000 -0.000001
v -0.500000 1.000000 0.000000
v 0.000000 0.500000 -0.000001
vt 0.554606 0.000000
vt 0.511872 0.005292
vt 0.364474 0.000000
vt 0.654786 0.006157
vt 0.782013 0.255078
vt 0.824595 0.261206
vt 0.870690 0.083998
vt 0.913527 0.083992
vt 0.829529 0.000000
vt 0.742465 0.000241
vt 0.562815 0.289505
vt 0.785997 0.000121
vt 0.872911 0.000000
vt 0.318915 0.045559
vt 0.829529 0.041720
vt 0.830088 0.000000
vt 0.000000 0.045559
vt 0.871807 0.000558
vt 0.743192 0.262132
vt 0.000000 0.000000
vt 0.658071 0.288396
vt 0.914631 0.000552
vt 0.273356 0.091119
vt 0.000000 0.091119
vt 0.515187 0.290060
vt 0.871807 0.083440
vt 0.915642 0.000000
vt 0.957363 0.000506
vt 0.956351 0.083947
vt 0.914631 0.083441
vt 0.958279 0.000000
vt 1.000000 0.000458
vt 0.999542 0.042179
vt 0.957363 0.083442
vt 0.508467 0.000000
vt 0.364474 0.364474
vt 0.318915 0.364475
vt 0.511872 0.292170
vt 0.273356 0.364474
vt 0.742465 0.289133
vt 0.741761 0.038257
vt 0.658840 0.289365
vt 0.415837 0.289890
vt 0.367466 0.255655
vt 0.364474 0.001677
vt 0.412472 0.001118
vt 0.658071 0.000000
vt 0.699961 0.038818
vt 0.700652 0.289249
vn 0.000000 1.000000 0.000000
vn 0.000000 0.967818 0.251653
vn 0.000000 0.907009 0.421111
vn 0.000000 1.000000 0.000000
vn 0.000000 0.707107 0.707107
vn 0.000000 0.707107 0.707107
vn 1.000000 0.000000 0.000000
vn 1.000000 0.000000 0.000000
vn 1.000000 0.000000 0.000000
vn 1.000000 0.000000 0.000000
vn 1.000000 0.000000 0.000000
vn 1.000000 0.000000 0.000000
vn 0.000000 -1.000000 0.000000
vn 0.000000 -1.000000 0.000000
vn 0.000000 -1.000000 0.000000
vn 0.000000 -1.000000 0.000000
vn 0.000000 -1.000000 0.000000
vn 0.000000 -1.000000 0.000000
vn 0.000000 0.000000 1.000000
vn 0.000000 0.000000 1.000000
vn 0.000000 0.000000 1.000000
vn 0.000000 0.000000 1.000000
vn 0.000000 0.000000 -1.000000
vn 0.000000 0.000000 -1.000000
vn 0.000000 0.000000 -1.000000
vn 0.000000 0.000000 -1.000000
vn -0.000001 -0.000000 1.000000
vn -0.000000 -0.000000 1.000000
vn -0.000000 -0.000000 1.000000
vn -0.000001 -0.000000 1.000000
vn 0.000001 -0.000001 1.000000
vn 0.000001 -0.000001 1.000000
vn -0.000000 1.000000 -0.000000
vn 0.421111 0.907009 -0.000000
vn 0.251652 0.967818 -0.000000
vn -0.000000 1.000000 -0.000000
vn 0.707107 0.707107 -0.000000
vn 0.707107 0.707107 -0.000000
vn 0.000000 -1.000000 0.000000
vn 0.000000 -1.000000 0.000000
vn 0.000000 -1.000000 0.000000
vn 0.000000 -1.000000 0.000000
vn 0.000000 -1.000000 0.000000
vn 0.000000 -1.000000 0.000000
vn 1.000000 0.000000 0.000000
vn 1.000000 0.000000 0.000000
vn 1.000000 0.000000 0.000000
vn 1.000000 0.000000 0.000000
vn -1.000000 0.000000 0.000000
vn -1.000000 0.000000 0.000000
vn -1.000000 0.000000 0.000000
vn -1.000000 0.000000 0.000000
s 1
g Outside_Corner
usemtl initialShadingGroup
f 4/3/1 5/14/2 8/17/3 7/20/4
f 5/14/2 6/23/5 9/24/6 8/17/3
s 2
f 7/8/7 8/26/8 11/13/9 10/22/10
f 8/7/8 9/15/11 12/16/12 11/18/9
s 3
f 10/11/13 11/25/14 2/2/15 1/1/16
f 11/10/14 12/12/17 3/5/18 2/19/15
s off
f 3/5/19 12/12/20 9/9/21 6/6/22
f 10/11/23 1/1/24 4/4/25 7/21/26
s 4
f 13/27/27 14/28/28 17/29/29 16/30/30
f 14/31/28 15/32/31 18/33/32 17/34/29
s 5
f 16/36/33 17/37/34 5/14/35 4/3/36
f 17/37/34 18/39/37 6/23/38 5/14/35
s 6
f 1/43/39 2/44/40 14/45/41 13/46/42
f 2/47/40 3/48/43 15/49/44 14/42/41
s off
f 15/49/45 3/48/46 6/41/47 18/40/48
f 1/43/49 13/46/50 16/35/51 4/38/52
