# File produced by Open Asset Import Library (http://www.assimp.sf.net)
# (assimp v3.1.128981410)

mtllib Wall.mtl

# vertex positions
v -1.000000 0.000000 -0.000001
v -0.500000 0.000000 -0.000001
v -0.500000 1.000000 0.000000
v -1.000000 1.000000 -0.000001
v 0.000000 0.000000 -0.000001
v 0.000000 0.500000 -0.000001
v -0.500000 1.000000 -3.000001
v -1.000000 1.000000 -3.000001
v 0.000000 0.500000 -3.000001
v -0.500000 0.000000 -3.000001
v -1.000000 0.000000 -3.000001
v 0.000000 0.000000 -3.000001

# UV coordinates
vt 0.825567 0.000000
vt 0.911835 0.001046
vt 0.909744 0.173583
vt 0.823475 0.172537
vt 0.913730 0.000000
vt 1.000000 0.000947
vt 0.999053 0.087217
vt 0.911835 0.172540
vt 0.258808 0.001005
vt 0.345077 0.000000
vt 0.351104 0.517616
vt 0.264835 0.518620
vt 0.647101 0.517746
vt 0.525089 0.517650
vt 0.525493 0.000000
vt 0.647504 0.000095
vt 0.821194 0.173676
vt 0.734926 0.172535
vt 0.737208 0.000000
vt 0.823475 0.001141
vt 0.732617 0.173690
vt 0.647504 0.086267
vt 0.648659 0.000000
vt 0.734926 0.001155
vt 0.092297 0.520629
vt 0.006028 0.521634
vt 0.000000 0.004018
vt 0.086269 0.003014
vt 0.351104 0.000479
vt 0.437379 0.000239
vt 0.438814 0.517888
vt 0.352540 0.518127
vt 0.523654 0.000000
vt 0.525089 0.517649

# vertex normals
vn -0.000001 0.000000 1.000000
vn 0.000000 0.000000 1.000000
vn 0.000001 -0.000001 1.000000
vn 0.000000 1.000000 0.000000
vn 0.447214 0.894427 0.000000
vn 0.707107 0.707107 0.000000
vn 0.000000 0.000000 -1.000000
vn 0.000000 -1.000000 0.000000
vn 1.000000 0.000000 0.000000
vn -1.000000 0.000000 0.000000

# Mesh
g Wall1
usemtl initialShadingGroup
f 4/4/1 1/1/1 2/2/2
f 2/2/2 3/3/2 4/4/1
f 3/8/2 2/5/2 5/6/3
f 5/6/3 6/7/3 3/8/2
f 8/12/4 4/9/4 3/10/5
f 3/10/5 7/11/5 8/12/4
f 7/16/5 3/13/5 6/14/6
f 6/14/6 9/15/6 7/16/5
f 11/20/7 8/17/7 7/18/7
f 7/18/7 10/19/7 11/20/7
f 10/24/7 7/21/7 9/22/7
f 9/22/7 12/23/7 10/24/7
f 1/28/8 11/25/8 10/26/8
f 10/26/8 2/27/8 1/28/8
f 2/32/8 10/29/8 12/30/8
f 12/30/8 5/31/8 2/32/8
f 6/34/9 5/31/9 12/30/9
f 12/30/9 9/33/9 6/34/9
f 8/12/10 11/25/10 1/28/10
f 1/28/10 4/9/10 8/12/10
